<svg xmlns="http://www.w3.org/2000/svg" xmlns:svg="http://www.w3.org/2000/svg" xmlns:xlink="http://www.w3.org/1999/xlink" version="1.0" height="1079.9999999999998pt" width="1270pt" viewBox="105 -72.99999999999996 1278 1085.9999999999998" ><defs><style type="text/css">
            @font-face {
                font-family: 'lt_regular';
                src: url('https://app.creately.com/diagram/assets/fonts/lato/lt-regular-webfont.woff2') format('woff2'),
                    url('https://app.creately.com/diagram/assets/fonts/lato/lt-regular-webfont.woff') format('woff');
                font-weight: normal;
                font-style: normal;
            }
            @font-face {
                font-family: 'noto_regular';
                src: url('https://app.creately.com/diagram/assets/fonts/noto/noto-regular.woff') format('woff'),
                     url('https://app.creately.com/diagram/assets/fonts/noto/noto-regular.woff2') format('woff2');
                font-weight: normal;
                font-style: normal;
            }
        p {
            margin: 0;
        }
        </style></defs><defs><style>
            span{ display: inline-block; }
        </style></defs><g id="ZzgsghNE7pf"><g transform="translate(350 50.00000000000006)"><rect x="0" y="0" width="99.99999999999997" height="49.999999999999986" fill="rgb(71,78,87)" stroke="#474e57" stroke-width="2" stroke-linecap="round" stroke-linejoin="round" stroke-dasharray="0 0"/></g><g transform="translate(369.5, 65.00000000000006) rotate(0, 30.5, 10)" width="61" height="20"><text text-decoration="none" x="0" fill="#ffffff" font-size="11pt" font-family="lt_regular"  y="16">Company</text><text text-decoration="none" x="62" fill="#4b4b4b" font-size="10pt" font-family="noto_regular"  y="16"></text></g></g><g id="P7CqMzA8bk5"><g transform="translate(650 40)"><path d="M 119.99999999999997,34.99999999999995 L 59.999999999999986,69.9999999999999 L 0,34.99999999999995 L 59.999999999999986,0 L 119.99999999999997,34.99999999999995 L 119.99999999999997,34.99999999999995 Z" fill="rgb(146,165,174)" stroke="#92a5ae" stroke-width="2" stroke-linecap="round" stroke-linejoin="round" stroke-dasharray="0 0"/></g><g transform="translate(667.5, 64.99999999999994) rotate(0, 42.5, 10)" width="85" height="20"><text text-decoration="none" x="0" fill="#ffffff" font-size="11pt" font-family="lt_regular"  y="16">Distribute_to</text><text text-decoration="none" x="85" fill="#4b4b4b" font-size="10pt" font-family="noto_regular"  y="16"></text></g></g><g id="fOUi02cvalY"><g transform="translate(969.9999999999999 50)"><rect x="0" y="0" width="100" height="50" fill="rgb(71,78,87)" stroke="#474e57" stroke-width="2" stroke-linecap="round" stroke-linejoin="round" stroke-dasharray="0 0"/></g><g transform="translate(991, 65) rotate(0, 29, 10)" width="58" height="20"><text text-decoration="none" x="0.5" fill="#ffffff" font-size="11pt" font-family="lt_regular"  y="16">branches</text><text text-decoration="none" x="57.5" fill="#4b4b4b" font-size="10pt" font-family="noto_regular"  y="16"></text></g></g><g id="kdQzoM55aCT"><g transform="translate(350 220)"><path d="M 100.00000000000007,34.99999999999997 L 50.000000000000036,69.99999999999994 L 0,34.99999999999997 L 50.000000000000036,0 L 100.00000000000007,34.99999999999997 L 100.00000000000007,34.99999999999997 Z" fill="rgb(146,165,174)" stroke="#92a5ae" stroke-width="2" stroke-linecap="round" stroke-linejoin="round" stroke-dasharray="0 0"/></g><g transform="translate(368, 244.99999999999997) rotate(0, 32, 10)" width="64" height="20"><text text-decoration="none" x="0" fill="#ffffff" font-size="11pt" font-family="lt_regular"  y="16">Supply_to</text><text text-decoration="none" x="65" fill="#4b4b4b" font-size="10pt" font-family="noto_regular"  y="16"></text></g></g><g id="tUqDIQ1M7sX"><g transform="translate(970.0000000000001 230)"><rect x="0" y="0" width="100" height="50" fill="rgb(71,78,87)" stroke="#474e57" stroke-width="2" stroke-linecap="round" stroke-linejoin="round" stroke-dasharray="0 0"/></g><g transform="translate(994, 245) rotate(0, 26, 10)" width="52" height="20"><text text-decoration="none" x="0" fill="#ffffff" font-size="11pt" font-family="lt_regular"  y="16">Supplier</text><text text-decoration="none" x="53" fill="#4b4b4b" font-size="10pt" font-family="noto_regular"  y="16"></text></g></g><g id="LkWbTd6oPxU"><g transform="translate(280.0000000000002 -49.99999999999994)"><ellipse cx="59.999999999999986" cy="24.999999999999993" rx="59.999999999999986" ry="24.999999999999993" fill="rgb(64,139,161)" stroke="#408ba1" stroke-width="2" stroke-linecap="round" stroke-linejoin="round" stroke-dasharray="0 0"/></g><g transform="translate(287.0000000000002, -34.99999999999995) rotate(0, 53, 10)" width="106" height="20"><text text-decoration="underline" x="0" fill="#ffffff" font-size="11pt" font-family="lt_regular"  y="16">Company_Name</text><text text-decoration="none" x="107" fill="#4b4b4b" font-size="10pt" font-family="noto_regular"  y="16"></text></g></g><g id="IsRYjFqoQYa"><g transform="translate(420.0000000000002 -50)"><ellipse cx="64.99999999999994" cy="25" rx="64.99999999999994" ry="25" fill="rgb(64,139,161)" stroke="#408ba1" stroke-width="2" stroke-linecap="round" stroke-linejoin="round" stroke-dasharray="0 0"/></g><g transform="translate(426.50000000000017, -35) rotate(0, 58.5, 10)" width="117" height="20"><text text-decoration="none" x="0" fill="#ffffff" font-size="11pt" font-family="lt_regular"  y="16">Company_address</text><text text-decoration="none" x="117" fill="#4b4b4b" font-size="10pt" font-family="noto_regular"  y="16"></text></g></g><g id="c3C7DAm1S2w"><g transform="translate(830.0000000000002 -9.999999999999943)"><ellipse cx="50" cy="25" rx="50" ry="25" fill="rgb(64,139,161)" stroke="#408ba1" stroke-width="2" stroke-linecap="round" stroke-linejoin="round" stroke-dasharray="0 0"/></g><g transform="translate(846.5000000000002, 5.000000000000057) rotate(0, 33.5, 10)" width="67" height="20"><text text-decoration="underline" x="0" fill="#ffffff" font-size="11pt" font-family="lt_regular"  y="16">Branch_ID</text><text text-decoration="none" x="67" fill="#4b4b4b" font-size="10pt" font-family="noto_regular"  y="16"></text></g></g><g id="lGV5m0B2pbf"><g transform="translate(910.0000000000002 -49.99999999999994)"><ellipse cx="49.99999999999999" cy="24.999999999999996" rx="49.99999999999999" ry="24.999999999999996" fill="rgb(64,139,161)" stroke="#408ba1" stroke-width="2" stroke-linecap="round" stroke-linejoin="round" stroke-dasharray="0 0"/></g><g transform="translate(931.5000000000002, -34.99999999999994) rotate(0, 28.5, 10)" width="57" height="20"><text text-decoration="none" x="0" fill="#ffffff" font-size="11pt" font-family="lt_regular"  y="16">Manager</text><text text-decoration="none" x="57" fill="#4b4b4b" font-size="10pt" font-family="noto_regular"  y="16"></text></g></g><g id="fazsS4sfxDH"><g transform="translate(1010.0000000000005 -69.99999999999996)"><ellipse cx="50" cy="25" rx="50" ry="25" fill="rgb(64,139,161)" stroke="#408ba1" stroke-width="2" stroke-linecap="round" stroke-linejoin="round" stroke-dasharray="0 0"/></g><g transform="translate(1042.0000000000005, -54.99999999999996) rotate(0, 18, 10)" width="36" height="20"><text text-decoration="none" x="0" fill="#ffffff" font-size="11pt" font-family="lt_regular"  y="16">Stock</text><text text-decoration="none" x="37" fill="#4b4b4b" font-size="10pt" font-family="noto_regular"  y="16"></text></g></g><g id="cwRsWWL8vg5"><g transform="translate(1110 -49.99999999999994)"><ellipse cx="50" cy="25" rx="50" ry="25" fill="rgb(64,139,161)" stroke="#408ba1" stroke-width="2" stroke-linecap="round" stroke-linejoin="round" stroke-dasharray="0 0"/></g><g transform="translate(1115, -34.99999999999994) rotate(0, 45, 10)" width="90" height="20"><text text-decoration="none" x="0" fill="#ffffff" font-size="11pt" font-family="lt_regular"  y="16">Branch_Name</text><text text-decoration="none" x="90" fill="#4b4b4b" font-size="10pt" font-family="noto_regular"  y="16"></text></g></g><g id="tNBWXa9KxY5"><g transform="translate(1110 10.000000000000028)"><ellipse cx="50" cy="25" rx="50" ry="25" fill="rgb(64,139,161)" stroke="#408ba1" stroke-width="2" stroke-linecap="round" stroke-linejoin="round" stroke-dasharray="0 0"/></g><g transform="translate(1139, 25.00000000000003) rotate(0, 21, 10)" width="42" height="20"><text text-decoration="none" x="0" fill="#ffffff" font-size="11pt" font-family="lt_regular"  y="16">E-Mail</text><text text-decoration="none" x="44" fill="#4b4b4b" font-size="10pt" font-family="noto_regular"  y="16"></text></g></g><g id="Qu8h629ldvR"><g transform="translate(880.0000000000002 150.0000000000001)"><ellipse cx="50" cy="25" rx="50" ry="25" fill="rgb(64,139,161)" stroke="#408ba1" stroke-width="2" stroke-linecap="round" stroke-linejoin="round" stroke-dasharray="0 0"/></g><g transform="translate(893.0000000000002, 165.0000000000001) rotate(0, 37, 10)" width="74" height="20"><text text-decoration="underline" x="0" fill="#ffffff" font-size="11pt" font-family="lt_regular"  y="16">ID_Supplier</text><text text-decoration="none" x="75" fill="#4b4b4b" font-size="10pt" font-family="noto_regular"  y="16"></text></g></g><g id="6KIp2PB1mCm"><g transform="translate(1000 150.0000000000001)"><ellipse cx="50" cy="25" rx="50" ry="25" fill="rgb(64,139,161)" stroke="#408ba1" stroke-width="2" stroke-linecap="round" stroke-linejoin="round" stroke-dasharray="0 0"/></g><g transform="translate(1001.5, 165.0000000000001) rotate(0, 48.5, 10)" width="97" height="20"><text text-decoration="none" x="0" fill="#ffffff" font-size="11pt" font-family="lt_regular"  y="16">Name_Supplier</text><text text-decoration="none" x="98" fill="#4b4b4b" font-size="10pt" font-family="noto_regular"  y="16"></text></g></g><g id="jjj8a24zUFH"><g transform="translate(970 380)"><path d="M 99.99999999999984,35 L 49.99999999999992,70 L 0,35 L 49.99999999999992,0 L 99.99999999999984,35 L 99.99999999999984,35 Z" fill="rgb(146,165,174)" stroke="#92a5ae" stroke-width="2" stroke-linecap="round" stroke-linejoin="round" stroke-dasharray="0 0"/></g><g transform="translate(998.4999999999999, 405) rotate(0, 21.5, 10)" width="43" height="20"><text text-decoration="none" x="0" fill="#ffffff" font-size="11pt" font-family="lt_regular"  y="16">Supply</text><text text-decoration="none" x="44" fill="#4b4b4b" font-size="10pt" font-family="noto_regular"  y="16"></text></g></g><g id="AjcBMiDcP70"><g transform="translate(970 600.0000000000001)"><rect x="0" y="0" width="100" height="50" fill="rgb(71,78,87)" stroke="#474e57" stroke-width="2" stroke-linecap="round" stroke-linejoin="round" stroke-dasharray="0 0"/></g><g transform="translate(991.5, 615.0000000000001) rotate(0, 28.5, 10)" width="57" height="20"><text text-decoration="none" x="0" fill="#ffffff" font-size="11pt" font-family="lt_regular"  y="16">Products</text><text text-decoration="none" x="57" fill="#4b4b4b" font-size="10pt" font-family="noto_regular"  y="16"></text></g></g><g id="AevhWZaop3y"><g transform="translate(1249.9999999999998 300)"><path d="M 99.99999999999974,35 L 49.99999999999987,70 L 0,35 L 49.99999999999987,0 L 99.99999999999974,35 L 99.99999999999974,35 Z" fill="rgb(146,165,174)" stroke="#92a5ae" stroke-width="2" stroke-linecap="round" stroke-linejoin="round" stroke-dasharray="0 0"/></g><g transform="translate(1285.4999999999995, 325) rotate(0, 14.5, 10)" width="29" height="20"><text text-decoration="none" x="0" fill="#ffffff" font-size="11pt" font-family="lt_regular"  y="16">Sells</text><text text-decoration="none" x="30" fill="#4b4b4b" font-size="10pt" font-family="noto_regular"  y="16"></text></g></g><g id="ImM3Gafc3sM"><g transform="translate(689.9999999999998 570)"><path d="M 120,55.000000000000036 L 60,110.00000000000007 L 0,55.000000000000036 L 60,0 L 120,55.000000000000036 L 120,55.000000000000036 Z" fill="rgb(146,165,174)" stroke="#92a5ae" stroke-width="2" stroke-linecap="round" stroke-linejoin="round" stroke-dasharray="0 0"/></g><g transform="translate(737.4999999999998, 615) rotate(0, 12.5, 10)" width="25" height="20"><text text-decoration="none" x="0" fill="#ffffff" font-size="11pt" font-family="lt_regular"  y="16">Buy</text><text text-decoration="none" x="26" fill="#4b4b4b" font-size="10pt" font-family="noto_regular"  y="16"></text></g></g><g id="pV7aHmbPOam"><g transform="translate(350 600)"><rect x="0" y="0" width="100" height="50" fill="rgb(71,78,87)" stroke="#474e57" stroke-width="2" stroke-linecap="round" stroke-linejoin="round" stroke-dasharray="0 0"/></g><g transform="translate(368.5, 615) rotate(0, 31.5, 10)" width="63" height="20"><text text-decoration="none" x="0" fill="#ffffff" font-size="11pt" font-family="lt_regular"  y="16">Customer</text><text text-decoration="none" x="63" fill="#4b4b4b" font-size="10pt" font-family="noto_regular"  y="16"></text></g></g><g id="1xuKhXFMEyy"><g transform="translate(700.0000000000002 470)"><ellipse cx="50" cy="25" rx="50" ry="25" fill="rgb(64,139,161)" stroke="#408ba1" stroke-width="2" stroke-linecap="round" stroke-linejoin="round" stroke-dasharray="0 0"/></g><g transform="translate(715.0000000000002, 485) rotate(0, 35, 10)" width="70" height="20"><text text-decoration="none" x="0" fill="#ffffff" font-size="11pt" font-family="lt_regular"  y="16">Total_Price</text><text text-decoration="none" x="74" fill="#4b4b4b" font-size="10pt" font-family="noto_regular"  y="16"></text></g></g><g id="LMxaOWkYvKB"><g transform="translate(110 760)"><ellipse cx="50" cy="25" rx="50" ry="25" fill="rgb(7,136,180)" stroke="#0788b4" stroke-width="2" stroke-linecap="round" stroke-linejoin="round" stroke-dasharray="0 0"/></g><g transform="translate(134.5, 775) rotate(0, 25.5, 10)" width="51" height="20"><text text-decoration="underline" x="0" fill="#ffffff" font-size="11pt" font-family="lt_regular"  y="16">Cust_ID</text><text text-decoration="none" x="51" fill="#4b4b4b" font-size="10pt" font-family="noto_regular"  y="16"></text></g></g><g id="2JcWqwlpuDj"><g transform="translate(200 539.9999999999998)"><ellipse cx="50" cy="25" rx="50" ry="25" fill="rgb(64,139,161)" stroke="#408ba1" stroke-width="2" stroke-linecap="round" stroke-linejoin="round" stroke-dasharray="0 0"/></g><g transform="translate(213, 554.9999999999998) rotate(0, 37, 10)" width="74" height="20"><text text-decoration="none" x="0" fill="#ffffff" font-size="11pt" font-family="lt_regular"  y="16">Cust_Name</text><text text-decoration="none" x="74" fill="#4b4b4b" font-size="10pt" font-family="noto_regular"  y="16"></text></g></g><g id="PXvCXGitN9X"><g transform="translate(280 760)"><ellipse cx="50" cy="25" rx="50" ry="25" fill="rgb(7,136,180)" stroke="#0788b4" stroke-width="2" stroke-linecap="round" stroke-linejoin="round" stroke-dasharray="0 0"/></g><g transform="translate(295.5, 775) rotate(0, 34.5, 10)" width="69" height="20"><text text-decoration="none" x="0" fill="#ffffff" font-size="11pt" font-family="lt_regular"  y="16">EXPI_Date</text><text text-decoration="none" x="70" fill="#4b4b4b" font-size="10pt" font-family="noto_regular"  y="16"></text></g></g><g id="VH7LaXwddor"><g transform="translate(200 660)"><ellipse cx="55" cy="27.5" rx="55" ry="27.5" fill="rgb(64,139,161)" stroke="#408ba1" stroke-width="2" stroke-linecap="round" stroke-linejoin="round" stroke-dasharray="0 0"/><ellipse cx="55" cy="27.5" rx="50" ry="22.5" fill="rgb(64,139,161)" stroke="#408ba1" stroke-width="2" stroke-linecap="round" stroke-linejoin="round" stroke-dasharray="0 0"/></g><g transform="translate(216.5, 677.5) rotate(0, 38.5, 10)" width="77" height="20"><text text-decoration="none" x="0" fill="#ffffff" font-size="11pt" font-family="lt_regular"  y="16">Credit_Card</text><text text-decoration="none" x="77" fill="#4b4b4b" font-size="10pt" font-family="noto_regular"  y="16"></text></g></g><g id="FUoqfry9BdI"><g transform="translate(700 800)"><rect x="0" y="0" width="100" height="50" fill="rgb(71,78,87)" stroke="#474e57" stroke-width="2" stroke-linecap="round" stroke-linejoin="round" stroke-dasharray="0 0"/></g><g transform="translate(731, 815) rotate(0, 19, 10)" width="38" height="20"><text text-decoration="none" x="0" fill="#ffffff" font-size="11pt" font-family="lt_regular"  y="16">Order</text><text text-decoration="none" x="38" fill="#4b4b4b" font-size="10pt" font-family="noto_regular"  y="16"></text></g></g><g id="7soWy4OTHBe"><g transform="translate(550.0000000000002 750)"><ellipse cx="50" cy="25" rx="50" ry="25" fill="rgb(64,139,161)" stroke="#408ba1" stroke-width="2" stroke-linecap="round" stroke-linejoin="round" stroke-dasharray="0 0"/></g><g transform="translate(570.0000000000002, 765) rotate(0, 30, 10)" width="60" height="20"><text text-decoration="underline" x="0" fill="#ffffff" font-size="11pt" font-family="lt_regular"  y="16">Order_ID</text><text text-decoration="none" x="60" fill="#4b4b4b" font-size="10pt" font-family="noto_regular"  y="16"></text></g></g><g id="2gTlocouTSS"><g transform="translate(550 870.0000000000001)"><ellipse cx="50" cy="25" rx="50" ry="25" fill="rgb(64,139,161)" stroke="#408ba1" stroke-width="2" stroke-linecap="round" stroke-linejoin="round" stroke-dasharray="0 0"/></g><g transform="translate(562, 885.0000000000001) rotate(0, 38, 10)" width="76" height="20"><text text-decoration="none" x="0" fill="#ffffff" font-size="11pt" font-family="lt_regular"  y="16">Order_Date</text><text text-decoration="none" x="76" fill="#4b4b4b" font-size="10pt" font-family="noto_regular"  y="16"></text></g></g><g id="ckv631pFDVH"><g transform="translate(550.0000000000002 810)"><ellipse cx="50" cy="25" rx="50" ry="25" fill="rgb(64,139,161)" stroke="#408ba1" stroke-width="2" stroke-linecap="round" stroke-linejoin="round" stroke-dasharray="0 0"/></g><g transform="translate(561.5000000000002, 825) rotate(0, 38.5, 10)" width="77" height="20"><text text-decoration="none" x="0" fill="#ffffff" font-size="11pt" font-family="lt_regular"  y="16">Order_Time</text><text text-decoration="none" x="78" fill="#4b4b4b" font-size="10pt" font-family="noto_regular"  y="16"></text></g></g><g id="y3jJ5SxnU1A"><g transform="translate(839.9999999999999 650)"><ellipse cx="50" cy="25" rx="50" ry="25" fill="rgb(64,139,161)" stroke="#408ba1" stroke-width="2" stroke-linecap="round" stroke-linejoin="round" stroke-dasharray="0 0"/></g><g transform="translate(863.9999999999999, 665) rotate(0, 26, 10)" width="52" height="20"><text text-decoration="underline" x="0" fill="#ffffff" font-size="11pt" font-family="lt_regular"  y="16">Prod_ID</text><text text-decoration="none" x="53" fill="#4b4b4b" font-size="10pt" font-family="noto_regular"  y="16"></text></g></g><g id="o99lJp3Krng"><g transform="translate(909.9999999999999 830)"><ellipse cx="50" cy="25" rx="50" ry="25" fill="rgb(64,139,161)" stroke="#408ba1" stroke-width="2" stroke-linecap="round" stroke-linejoin="round" stroke-dasharray="0 0"/></g><g transform="translate(928.9999999999999, 845) rotate(0, 31, 10)" width="62" height="20"><text text-decoration="none" x="0" fill="#ffffff" font-size="11pt" font-family="lt_regular"  y="16">Exp_Date</text><text text-decoration="none" x="62" fill="#4b4b4b" font-size="10pt" font-family="noto_regular"  y="16"></text></g></g><g id="NZsdjLhdn4H"><g transform="translate(860 709.9999999999999)"><ellipse cx="50" cy="25" rx="50" ry="25" fill="rgb(64,139,161)" stroke="#408ba1" stroke-width="2" stroke-linecap="round" stroke-linejoin="round" stroke-dasharray="0 0"/></g><g transform="translate(874.5, 724.9999999999999) rotate(0, 35.5, 10)" width="71" height="20"><text text-decoration="none" x="0" fill="#ffffff" font-size="11pt" font-family="lt_regular"  y="16">Descrption</text><text text-decoration="none" x="71" fill="#4b4b4b" font-size="10pt" font-family="noto_regular"  y="16"></text></g></g><g id="C1oxoyvGz6e"><g transform="translate(1209.9999999999995 810)"><ellipse cx="50" cy="25" rx="50" ry="25" fill="rgb(64,139,161)" stroke="#408ba1" stroke-width="2" stroke-linecap="round" stroke-linejoin="round" stroke-dasharray="0 0"/></g><g transform="translate(1243.9999999999995, 825) rotate(0, 16, 10)" width="32" height="20"><text text-decoration="none" x="0" fill="#ffffff" font-size="11pt" font-family="lt_regular"  y="16">Price</text><text text-decoration="none" x="33" fill="#4b4b4b" font-size="10pt" font-family="noto_regular"  y="16"></text></g></g><g id="tNWxYh5bJgI"><g transform="translate(970.0000000000001 890)"><ellipse cx="50" cy="25" rx="50" ry="25" fill="rgb(64,139,161)" stroke="#408ba1" stroke-width="2" stroke-linecap="round" stroke-linejoin="round" stroke-dasharray="0 0"/></g><g transform="translate(994, 905) rotate(0, 26, 10)" width="52" height="20"><text text-decoration="none" x="0" fill="#ffffff" font-size="11pt" font-family="lt_regular"  y="16">barcode</text><text text-decoration="none" x="52" fill="#4b4b4b" font-size="10pt" font-family="noto_regular"  y="16"></text></g></g><g id="w2czJkuc6JO"><g transform="translate(1280 670)"><ellipse cx="50" cy="25" rx="50" ry="25" fill="rgb(64,139,161)" stroke="#408ba1" stroke-width="2" stroke-linecap="round" stroke-linejoin="round" stroke-dasharray="0 0"/></g><g transform="translate(1301.5, 685) rotate(0, 28.5, 10)" width="57" height="20"><text text-decoration="none" x="0" fill="#ffffff" font-size="11pt" font-family="lt_regular"  y="16">Quantity</text><text text-decoration="none" x="57" fill="#4b4b4b" font-size="10pt" font-family="noto_regular"  y="16"></text></g></g><g id="YbBSU9JO9wD"><g transform="translate(1269.9999999999995 740.0000000000001)"><ellipse cx="50" cy="25" rx="50" ry="25" fill="rgb(64,139,161)" stroke="#408ba1" stroke-width="2" stroke-linecap="round" stroke-linejoin="round" stroke-dasharray="0 0"/></g><g transform="translate(1300.9999999999995, 755.0000000000001) rotate(0, 19, 10)" width="38" height="20"><text text-decoration="none" x="0" fill="#ffffff" font-size="11pt" font-family="lt_regular"  y="16">Name</text><text text-decoration="none" x="38" fill="#4b4b4b" font-size="10pt" font-family="noto_regular"  y="16"></text></g></g><g id="aHv10AwOznJ"><g transform="translate(879.9999999999999 770)"><ellipse cx="50" cy="25" rx="50" ry="25" fill="rgb(64,139,161)" stroke="#408ba1" stroke-width="2" stroke-linecap="round" stroke-linejoin="round" stroke-dasharray="0 0"/></g><g transform="translate(895.9999999999999, 785) rotate(0, 34, 10)" width="68" height="20"><text text-decoration="none" x="0" fill="#ffffff" font-size="11pt" font-family="lt_regular"  y="16">Pord_Date</text><text text-decoration="none" x="69" fill="#4b4b4b" font-size="10pt" font-family="noto_regular"  y="16"></text></g></g><g id="nsSBVRi2PND"><g transform="translate(1099.9999999999995 850.0000000000001)"><ellipse cx="54.99999999999994" cy="27.49999999999997" rx="54.99999999999994" ry="27.49999999999997" fill="rgb(64,139,161)" stroke="#408ba1" stroke-width="2" stroke-linecap="round" stroke-linejoin="round" stroke-dasharray="0 0"/><ellipse cx="54.99999999999994" cy="27.49999999999997" rx="49.99999999999994" ry="22.49999999999997" fill="rgb(64,139,161)" stroke="#408ba1" stroke-width="2" stroke-linecap="round" stroke-linejoin="round" stroke-dasharray="0 0"/></g><g transform="translate(1120.4999999999995, 867.5) rotate(0, 34.5, 10)" width="69" height="20"><text text-decoration="none" x="0" fill="#ffffff" font-size="11pt" font-family="lt_regular"  y="16">Categories</text><text text-decoration="none" x="70" fill="#4b4b4b" font-size="10pt" font-family="noto_regular"  y="16"></text></g></g><g id="xBKC7nJP0zS"><g transform="translate(1180 959.9999999999998)"><ellipse cx="50" cy="25" rx="50" ry="25" fill="rgb(7,136,180)" stroke="#0788b4" stroke-width="2" stroke-linecap="round" stroke-linejoin="round" stroke-dasharray="0 0"/></g><g transform="translate(1208, 974.9999999999998) rotate(0, 22, 10)" width="44" height="20"><text text-decoration="underline" x="0" fill="#ffffff" font-size="11pt" font-family="lt_regular"  y="16">Cat_ID</text><text text-decoration="none" x="44" fill="#4b4b4b" font-size="10pt" font-family="noto_regular"  y="16"></text></g></g><g id="Yueugqxo6af"><g transform="translate(1050 959.9999999999998)"><ellipse cx="50" cy="25" rx="50" ry="25" fill="rgb(7,136,180)" stroke="#0788b4" stroke-width="2" stroke-linecap="round" stroke-linejoin="round" stroke-dasharray="0 0"/></g><g transform="translate(1066.5, 974.9999999999998) rotate(0, 33.5, 10)" width="67" height="20"><text text-decoration="none" x="0" fill="#ffffff" font-size="11pt" font-family="lt_regular"  y="16">Cat_Name</text><text text-decoration="none" x="67" fill="#4b4b4b" font-size="10pt" font-family="noto_regular"  y="16"></text></g></g><g id="SYI9B3hFiqm"><g transform="translate(199.99999999999977 600)"><ellipse cx="50" cy="25" rx="50" ry="25" fill="rgb(64,139,161)" stroke="#408ba1" stroke-width="2" stroke-linecap="round" stroke-linejoin="round" stroke-dasharray="0 0"/></g><g transform="translate(227.49999999999977, 615) rotate(0, 22.5, 10)" width="45" height="20"><text text-decoration="underline" x="0" fill="#ffffff" font-size="11pt" font-family="lt_regular"  y="16">CardID</text><text text-decoration="none" x="45" fill="#4b4b4b" font-size="10pt" font-family="noto_regular"  y="16"></text></g></g><g id="zYM55TkNXS1"><g><path d="M 388,-10 L 400,50" fill="none" stroke="#9A9A9A" stroke-width="2" stroke-linecap="round" stroke-linejoin="round"/></g></g><g id="AKb6aPYk5AI"><g><path d="M 433,-10 L 400,50" fill="none" stroke="#9A9A9A" stroke-width="2" stroke-linecap="round" stroke-linejoin="round"/></g></g><g id="h3QMKsv6olR"><g><path d="M 770,75 L 860,74.99999999999994 Q 860,74.99999999999994 870,75 Q 880,75 880,75 L 970,75" fill="none" stroke="#7E7E7E" stroke-width="2" stroke-linecap="round" stroke-linejoin="round"/></g></g><g id="xoV1PQEO0iW"><g><path d="M 450,75 L 540,75.00000000000006 Q 540,75.00000000000006 550,75 Q 560,74.99999999999994 560,74.99999999999994 L 650,75" fill="none" stroke="#7E7E7E" stroke-width="2" stroke-linecap="round" stroke-linejoin="round"/></g></g><g id="POmfhcJ60aa"><g><path d="M 930,15 L 1020,50" fill="none" stroke="#9A9A9A" stroke-width="2" stroke-linecap="round" stroke-linejoin="round"/></g></g><g id="VaBZf72cDxh"><g><path d="M 1000,-10 L 1020,50" fill="none" stroke="#9A9A9A" stroke-width="2" stroke-linecap="round" stroke-linejoin="round"/></g></g><g id="vtD4gRUaXjr"><g><path d="M 1040,-22 L 1020,50" fill="none" stroke="#9A9A9A" stroke-width="2" stroke-linecap="round" stroke-linejoin="round"/></g></g><g id="wrfjPajI7Pr"><g><path d="M 1120,-10 L 1020,50" fill="none" stroke="#9A9A9A" stroke-width="2" stroke-linecap="round" stroke-linejoin="round"/></g></g><g id="galNUcnYqUJ"><g><path d="M 1110,35 L 1020,50" fill="none" stroke="#9A9A9A" stroke-width="2" stroke-linecap="round" stroke-linejoin="round"/></g></g><g id="ydl1se3gdsd"><g><path d="M 400,100 L 400,220" fill="none" stroke="#7E7E7E" stroke-width="2" stroke-linecap="round" stroke-linejoin="round"/></g></g><g id="ZNUcu9WJq44"><g><path d="M 450,255 L 700.0000000000001,254.99999999999997 Q 700.0000000000002,254.99999999999997 710,255 Q 720,255 720.0000000000001,255 L 970,255" fill="none" stroke="#7E7E7E" stroke-width="2" stroke-linecap="round" stroke-linejoin="round"/></g></g><g id="qHNAnfhhq3E"><g><path d="M 970,190 L 1020,230" fill="none" stroke="#9A9A9A" stroke-width="2" stroke-linecap="round" stroke-linejoin="round"/></g></g><g id="FQicdhdVVzc"><g><path d="M 1030,198 L 1020,230" fill="none" stroke="#9A9A9A" stroke-width="2" stroke-linecap="round" stroke-linejoin="round"/></g></g><g id="Ug2A8AHm9dR"><g><path d="M 1020,280 L 1020,330 Q 1019.9999999999999,339.9999999999999 1019.9999999999999,340 L 1020,380" fill="none" stroke="#7E7E7E" stroke-width="2" stroke-linecap="round" stroke-linejoin="round"/></g></g><g id="JcOnIE6FKhy"><g><path d="M 1020,450 L 1019.9999999999999,515 Q 1019.9999999999999,515.0000000000001 1020,525 Q 1020,535 1020,535 L 1020,600" fill="none" stroke="#7E7E7E" stroke-width="2" stroke-linecap="round" stroke-linejoin="round"/></g></g><g id="lb47bkPm1LJ"><g><path d="M 1070,75 L 1289.9999999999995,75 Q 1299.9999999999995,75 1299.9999999999995,85 L 1300,300" fill="none" stroke="#7E7E7E" stroke-width="2" stroke-linecap="round" stroke-linejoin="round"/></g></g><g id="JdBLxwIh3Da"><g><path d="M 1300,370 L 1299.9999999999995,615.0000000000001 Q 1299.9999999999995,625.0000000000001 1289.9999999999995,625.0000000000001 L 1070,625" fill="none" stroke="#7E7E7E" stroke-width="2" stroke-linecap="round" stroke-linejoin="round"/></g></g><g id="b2fgvEd0muA"><g><path d="M 450,625 L 690,625" fill="none" stroke="#7E7E7E" stroke-width="2" stroke-linecap="round" stroke-linejoin="round"/></g></g><g id="McKRlByYNLt"><g><path d="M 810,625 L 890,625 Q 899.9999999999998,625.0000000000001 899.9999999999999,625.0000000000001 L 970,625" fill="none" stroke="#7E7E7E" stroke-width="2" stroke-linecap="round" stroke-linejoin="round"/></g></g><g id="Z000ltxEDdG"><g><path d="M 750,520 L 750,570" fill="none" stroke="#9A9A9A" stroke-width="2" stroke-linecap="round" stroke-linejoin="round"/></g></g><g id="YtzG7Ja7nmx"><g><path d="M 290,580 L 350,625" fill="none" stroke="#9A9A9A" stroke-width="2" stroke-linecap="round" stroke-linejoin="round"/></g></g><g id="mAFqSDIWyKv"><g><path d="M 300,625 L 350,625" fill="none" stroke="#9A9A9A" stroke-width="2" stroke-linecap="round" stroke-linejoin="round"/></g></g><g id="0SrKwjs5nSY"><g><path d="M 290,670 L 350,625" fill="none" stroke="#9A9A9A" stroke-width="2" stroke-linecap="round" stroke-linejoin="round"/></g></g><g id="6TPf2j7DzfM"><g><path d="M 200,770 L 250,710" fill="none" stroke="#9A9A9A" stroke-width="2" stroke-linecap="round" stroke-linejoin="round"/></g></g><g id="bJgb2fiZdwN"><g><path d="M 290,770 L 250,710" fill="none" stroke="#9A9A9A" stroke-width="2" stroke-linecap="round" stroke-linejoin="round"/></g></g><g id="VOhjbccuFV3"><g><path d="M 750,680 L 749.9999999999998,730 Q 749.9999999999998,730.0000000000002 750,740 Q 750,750 750,750 L 750,800" fill="none" stroke="#7E7E7E" stroke-width="2" stroke-linecap="round" stroke-linejoin="round"/></g></g><g id="1hfHlIYrtlU"><g><path d="M 640,790 L 700,825" fill="none" stroke="#9A9A9A" stroke-width="2" stroke-linecap="round" stroke-linejoin="round"/></g></g><g id="xwwYEuUNJEv"><g><path d="M 650,835 L 700,825" fill="none" stroke="#9A9A9A" stroke-width="2" stroke-linecap="round" stroke-linejoin="round"/></g></g><g id="JiPMk17WLfG"><g><path d="M 640,880 L 670,853 L 700,825" fill="none" stroke="#9A9A9A" stroke-width="2" stroke-linecap="round" stroke-linejoin="round"/></g></g><g id="SEGYmnnavgz"><g><path d="M 940,675 L 1020,650" fill="none" stroke="#9A9A9A" stroke-width="2" stroke-linecap="round" stroke-linejoin="round"/></g></g><g id="bVgykHa7FPc"><g><path d="M 950,720 L 1020,650" fill="none" stroke="#9A9A9A" stroke-width="2" stroke-linecap="round" stroke-linejoin="round"/></g></g><g id="c5vq8j2ws4o"><g><path d="M 970,780 L 1020,650" fill="none" stroke="#9A9A9A" stroke-width="2" stroke-linecap="round" stroke-linejoin="round"/></g></g><g id="xb69eWNp4Vz"><g><path d="M 980,832 L 1020,650" fill="none" stroke="#9A9A9A" stroke-width="2" stroke-linecap="round" stroke-linejoin="round"/></g></g><g id="cRDTymhisFC"><g><path d="M 1020,890 L 1020,650" fill="none" stroke="#9A9A9A" stroke-width="2" stroke-linecap="round" stroke-linejoin="round"/></g></g><g id="9Q9bpTdCjaZ"><g><path d="M 1280,695 L 1020,650" fill="none" stroke="#9A9A9A" stroke-width="2" stroke-linecap="round" stroke-linejoin="round"/></g></g><g id="xQTchITHDMf"><g><path d="M 1270,765 L 1020,650" fill="none" stroke="#9A9A9A" stroke-width="2" stroke-linecap="round" stroke-linejoin="round"/></g></g><g id="E8O5VbKIUcX"><g><path d="M 1220,820 L 1020,650" fill="none" stroke="#9A9A9A" stroke-width="2" stroke-linecap="round" stroke-linejoin="round"/></g></g><g id="5bMqm6WwVs5"><g><path d="M 1110,860 L 1020,650" fill="none" stroke="#9A9A9A" stroke-width="2" stroke-linecap="round" stroke-linejoin="round"/></g></g><g id="6W4DyaQ6PoO"><g><path d="M 1120,962 L 1150,900" fill="none" stroke="#9A9A9A" stroke-width="2" stroke-linecap="round" stroke-linejoin="round"/></g></g><g id="zh7hWgcZE3c"><g><path d="M 1190,970 L 1150,900" fill="none" stroke="#9A9A9A" stroke-width="2" stroke-linecap="round" stroke-linejoin="round"/></g></g></svg>